<?xml version="1.0" encoding="UTF-8"?><svg id="uuid-ac76fcd9-1141-4d08-b1fe-11dfe1a23bbc" xmlns="http://www.w3.org/2000/svg" viewBox="0 0 38 38"><title>Ansible automation hub (hosted) icon</title>
<desc>Management</desc>
<metadata><?xpacket begin="﻿" id="W5M0MpCehiHzreSzNTczkc9d"?>
<x:xmpmeta xmlns:x="adobe:ns:meta/" x:xmptk="Adobe XMP Core 8.0-c001 1.000000, 0000/00/00-00:00:00        ">
   <rdf:RDF xmlns:rdf="http://www.w3.org/1999/02/22-rdf-syntax-ns#">
      <rdf:Description rdf:about=""
            xmlns:xmp="http://ns.adobe.com/xap/1.0/"
            xmlns:dc="http://purl.org/dc/elements/1.1/"
            xmlns:cq="http://www.day.com/jcr/cq/1.0"
            xmlns:tiff="http://ns.adobe.com/tiff/1.0/"
            xmlns:xmpRights="http://ns.adobe.com/xap/1.0/rights/">
         <xmp:rhcc-effective-on>2024-03-01T15:25:45.499Z</xmp:rhcc-effective-on>
         <xmp:rhcc-metadata-complete-moderator>pending</xmp:rhcc-metadata-complete-moderator>
         <xmp:rhcc-translation-id>TRAc60b4a9a-d0f9-420c-bdd6-0d292e892564</xmp:rhcc-translation-id>
         <xmp:brand-content-type>Icon</xmp:brand-content-type>
         <xmp:CreateDate>2024-03-01T15:25:45.499Z</xmp:CreateDate>
         <xmp:rhcc-effective-on-set-on-upload>true</xmp:rhcc-effective-on-set-on-upload>
         <xmp:rhcc-metadata-complete-uploader>pending</xmp:rhcc-metadata-complete-uploader>
         <xmp:rhcc-file-last-modified>2024-03-21T00:39:44.331Z</xmp:rhcc-file-last-modified>
         <xmp:rhcc-audience>rhcc-audience:internal</xmp:rhcc-audience>
         <xmp:rhcc-rights-restricted>no</xmp:rhcc-rights-restricted>
         <xmp:brand-content-subtype>Technology icon</xmp:brand-content-subtype>
         <xmp:rhcc-derivative-id>DERc60b4a9a-d0f9-420c-bdd6-0d292e892564</xmp:rhcc-derivative-id>
         <xmp:brand-logo-color>Black</xmp:brand-logo-color>
         <xmp:rhcc-notify-portal-subscribers-on-change>yes</xmp:rhcc-notify-portal-subscribers-on-change>
         <xmp:rhcc-product>
            <rdf:Bag>
               <rdf:li>rhcc-product:red-hat-ansible-automation-platform</rdf:li>
            </rdf:Bag>
         </xmp:rhcc-product>
         <xmp:brand-subtype>
            <rdf:Bag>
               <rdf:li>Technology icon</rdf:li>
            </rdf:Bag>
         </xmp:brand-subtype>
         <dc:format>image/svg+xml</dc:format>
         <dc:modified>2024-05-10T00:42:01.817Z</dc:modified>
         <dc:title>
            <rdf:Alt>
               <rdf:li xml:lang="x-default">Ansible automation hub (hosted) icon</rdf:li>
            </rdf:Alt>
         </dc:title>
         <dc:description>
            <rdf:Alt>
               <rdf:li xml:lang="x-default">Management</rdf:li>
            </rdf:Alt>
         </dc:description>
         <cq:lastReplicationAction_scene7>Activate</cq:lastReplicationAction_scene7>
         <cq:lastReplicationAction_publish>Activate</cq:lastReplicationAction_publish>
         <cq:lastReplicated_publish>2024-05-10T00:42:18.869Z</cq:lastReplicated_publish>
         <cq:lastReplicatedBy>workflow-process-service</cq:lastReplicatedBy>
         <cq:lastReplicationAction>Activate</cq:lastReplicationAction>
         <cq:lastReplicatedBy_publish>workflow-process-service</cq:lastReplicatedBy_publish>
         <cq:isDelivered>false</cq:isDelivered>
         <cq:lastReplicated>2024-05-10T00:42:18.869Z</cq:lastReplicated>
         <cq:lastReplicatedBy_scene7>workflow-process-service</cq:lastReplicatedBy_scene7>
         <cq:lastReplicated_scene7>2024-05-10T00:42:18.869Z</cq:lastReplicated_scene7>
         <tiff:ImageLength>38</tiff:ImageLength>
         <tiff:ImageWidth>38</tiff:ImageWidth>
         <xmpRights:UsageTerms>
            <rdf:Alt>
               <rdf:li xml:lang="x-default">Use technology icons to represent Red Hat products and components. Do not remove the icon from the bounding shape.</rdf:li>
            </rdf:Alt>
         </xmpRights:UsageTerms>
      </rdf:Description>
   </rdf:RDF>
</x:xmpmeta>
                                                                                                    
                                                                                                    
                                                                                                    
                                                                                                    
                                                                                                    
                                                                                                    
                                                                                                    
                                                                                                    
                                                                                                    
                                                                                                    
                           
<?xpacket end="w"?></metadata>
<path d="m28,1H10C5.02942,1,1,5.02942,1,10v18c0,4.97058,4.02942,9,9,9h18c4.97058,0,9-4.02942,9-9V10c0-4.97058-4.02942-9-9-9Zm7.75,27c0,4.27338-3.47668,7.75-7.75,7.75H10c-4.27332,0-7.75-3.47662-7.75-7.75V10c0-4.27338,3.47668-7.75,7.75-7.75h18c4.27332,0,7.75,3.47662,7.75,7.75v18Z"/><path d="m11,14.625h3c.34473,0,.625-.27979.625-.625v-3c0-.34521-.28027-.625-.625-.625h-3c-.34473,0-.625.27979-.625.625v3c0,.34521.28027.625.625.625Zm.625-3h1.75v1.75h-1.75v-1.75Z"/><path d="m27,10.375h-3c-.34473,0-.625.27979-.625.625v3c0,.34521.28027.625.625.625h3c.34473,0,.625-.27979.625-.625v-3c0-.34521-.28027-.625-.625-.625Zm-.625,3h-1.75v-1.75h1.75v1.75Z"/><path d="m27,23.375h-3c-.34473,0-.625.27979-.625.625v3c0,.34521.28027.625.625.625h3c.34473,0,.625-.27979.625-.625v-3c0-.34521-.28027-.625-.625-.625Zm-.625,3h-1.75v-1.75h1.75v1.75Z"/><path d="m14,23.375h-3c-.34473,0-.625.27979-.625.625v3c0,.34521.28027.625.625.625h3c.34473,0,.625-.27979.625-.625v-3c0-.34521-.28027-.625-.625-.625Zm-.625,3h-1.75v-1.75h1.75v1.75Z"/><path d="m17.15527,11.85742c1.19922-.30859,2.49023-.30859,3.68945,0,.05176.01318.10449.01953.15527.01953.2793,0,.5332-.18701.60547-.46924.08594-.33447-.11523-.67529-.4502-.76123-1.40039-.36035-2.91016-.36035-4.31055,0-.33496.08594-.53613.42676-.4502.76123.08496.3335.42285.53369.76074.44971Z"/><path d="m11.25195,21.625c.05078,0,.10352-.00635.15527-.01953.33398-.08594.53613-.42676.4502-.76074-.1543-.60059-.23242-1.22119-.23242-1.84473s.07812-1.24414.23242-1.84473c.08594-.33398-.11621-.6748-.4502-.76074-.33691-.08496-.6748.11719-.76074.4502-.17969.70215-.27148,1.42725-.27148,2.15527s.0918,1.45312.27148,2.15527c.07227.28223.32617.46973.60547.46973Z"/><path d="m20.84473,26.14258c-1.19922.30859-2.49023.30859-3.68945,0-.33691-.08643-.6748.11621-.76074.44971-.08594.33447.11523.67529.4502.76123.7002.18018,1.42578.27148,2.15527.27148s1.45508-.09131,2.15527-.27148c.33496-.08594.53613-.42676.4502-.76123-.08496-.3335-.42383-.53662-.76074-.44971Z"/><path d="m26.59277,16.39453c-.33398.08594-.53613.42676-.4502.76074.1543.60059.23242,1.22119.23242,1.84473s-.07812,1.24414-.23242,1.84473c-.08594.33398.11621.6748.4502.76074.05176.01318.10449.01953.15527.01953.2793,0,.5332-.1875.60547-.46973.17969-.70215.27148-1.42725.27148-2.15527s-.0918-1.45312-.27148-2.15527c-.08594-.33398-.42383-.53613-.76074-.4502Z"/><path d="m22.46582,18.25684c-.16211-1.53223-1.46191-2.73047-3.03711-2.73047-1.06055,0-2.03125.54834-2.58496,1.42822-1.3623.00732-2.46875,1.11816-2.46875,2.48242,0,1.36865,1.11328,2.48193,2.48242,2.48193h5c.06543,0,.12891-.01025.18848-.02881.89551-.15723,1.5791-.94141,1.5791-1.88184,0-.78174-.47168-1.45947-1.15918-1.75146Zm-.75195,2.41211h-4.85645c-.67969,0-1.23242-.55273-1.23242-1.23193,0-.67969.55273-1.23242,1.23242-1.23242.07812,0,.1543.0083.22754.02246.29004.05371.57324-.09814.68945-.36475.28711-.65967.93652-1.08594,1.6543-1.08594.99414,0,1.80371.80908,1.80371,1.80322l-.00684.12158c-.01855.33301.22656.62158.55859.65674.33691.03564.59082.31543.59082.65039,0,.36426-.29688.66064-.66113.66064Z"/></svg>