<?xml version="1.0" encoding="UTF-8"?><svg id="uuid-9f38b252-51c0-46d1-bfb6-e4702cf9c5d8" xmlns="http://www.w3.org/2000/svg" viewBox="0 0 38 38"><title>Ansible Content Collections icon</title>
<desc>Management</desc>
<metadata><?xpacket begin="﻿" id="W5M0MpCehiHzreSzNTczkc9d"?>
<x:xmpmeta xmlns:x="adobe:ns:meta/" x:xmptk="Adobe XMP Core 8.0-c001 1.000000, 0000/00/00-00:00:00        ">
   <rdf:RDF xmlns:rdf="http://www.w3.org/1999/02/22-rdf-syntax-ns#">
      <rdf:Description rdf:about=""
            xmlns:xmp="http://ns.adobe.com/xap/1.0/"
            xmlns:dc="http://purl.org/dc/elements/1.1/"
            xmlns:cq="http://www.day.com/jcr/cq/1.0"
            xmlns:tiff="http://ns.adobe.com/tiff/1.0/"
            xmlns:xmpRights="http://ns.adobe.com/xap/1.0/rights/">
         <xmp:rhcc-effective-on>2024-03-01T15:25:38.597Z</xmp:rhcc-effective-on>
         <xmp:rhcc-metadata-complete-moderator>pending</xmp:rhcc-metadata-complete-moderator>
         <xmp:rhcc-translation-id>TRAe705ce5f-8677-468d-9c7b-64ddb614f720</xmp:rhcc-translation-id>
         <xmp:brand-content-type>Icon</xmp:brand-content-type>
         <xmp:CreateDate>2024-03-01T15:25:38.597Z</xmp:CreateDate>
         <xmp:rhcc-effective-on-set-on-upload>true</xmp:rhcc-effective-on-set-on-upload>
         <xmp:rhcc-metadata-complete-uploader>pending</xmp:rhcc-metadata-complete-uploader>
         <xmp:rhcc-file-last-modified>2024-03-21T00:38:20.233Z</xmp:rhcc-file-last-modified>
         <xmp:rhcc-audience>rhcc-audience:internal</xmp:rhcc-audience>
         <xmp:rhcc-rights-restricted>no</xmp:rhcc-rights-restricted>
         <xmp:brand-content-subtype>Technology icon</xmp:brand-content-subtype>
         <xmp:rhcc-derivative-id>DERe705ce5f-8677-468d-9c7b-64ddb614f720</xmp:rhcc-derivative-id>
         <xmp:brand-logo-color>Black</xmp:brand-logo-color>
         <xmp:rhcc-notify-portal-subscribers-on-change>yes</xmp:rhcc-notify-portal-subscribers-on-change>
         <xmp:rhcc-product>
            <rdf:Bag>
               <rdf:li>rhcc-product:red-hat-ansible-automation-platform</rdf:li>
            </rdf:Bag>
         </xmp:rhcc-product>
         <xmp:brand-subtype>
            <rdf:Bag>
               <rdf:li>Technology icon</rdf:li>
            </rdf:Bag>
         </xmp:brand-subtype>
         <dc:format>image/svg+xml</dc:format>
         <dc:modified>2024-05-10T00:43:40.436Z</dc:modified>
         <dc:title>
            <rdf:Alt>
               <rdf:li xml:lang="x-default">Ansible Content Collections icon</rdf:li>
            </rdf:Alt>
         </dc:title>
         <dc:description>
            <rdf:Alt>
               <rdf:li xml:lang="x-default">Management</rdf:li>
            </rdf:Alt>
         </dc:description>
         <cq:lastReplicationAction_scene7>Activate</cq:lastReplicationAction_scene7>
         <cq:lastReplicationAction_publish>Activate</cq:lastReplicationAction_publish>
         <cq:lastReplicated_publish>2024-05-10T00:44:06.643Z</cq:lastReplicated_publish>
         <cq:lastReplicatedBy>workflow-process-service</cq:lastReplicatedBy>
         <cq:lastReplicationAction>Activate</cq:lastReplicationAction>
         <cq:lastReplicatedBy_publish>workflow-process-service</cq:lastReplicatedBy_publish>
         <cq:isDelivered>false</cq:isDelivered>
         <cq:lastReplicated>2024-05-10T00:44:06.643Z</cq:lastReplicated>
         <cq:lastReplicatedBy_scene7>workflow-process-service</cq:lastReplicatedBy_scene7>
         <cq:lastReplicated_scene7>2024-05-10T00:44:06.643Z</cq:lastReplicated_scene7>
         <tiff:ImageLength>38</tiff:ImageLength>
         <tiff:ImageWidth>38</tiff:ImageWidth>
         <xmpRights:UsageTerms>
            <rdf:Alt>
               <rdf:li xml:lang="x-default">Use technology icons to represent Red Hat products and components. Do not remove the icon from the bounding shape.</rdf:li>
            </rdf:Alt>
         </xmpRights:UsageTerms>
      </rdf:Description>
   </rdf:RDF>
</x:xmpmeta>
                                                                                                    
                                                                                                    
                                                                                                    
                                                                                                    
                                                                                                    
                                                                                                    
                                                                                                    
                                                                                                    
                                                                                                    
                                                                                                    
                                                                                                    
                                                                                                    
                                                                                                    
                                                                                                    
                                                                                                    
                                                                                                    
                                                                                                    
                                                                                                    
                                                                              
<?xpacket end="w"?></metadata>
<path d="m28,1H10C5.02942,1,1,5.02942,1,10v18c0,4.97058,4.02942,9,9,9h18c4.97058,0,9-4.02942,9-9V10c0-4.97058-4.02942-9-9-9Zm7.75,27c0,4.27338-3.47668,7.75-7.75,7.75H10c-4.27332,0-7.75-3.47662-7.75-7.75V10c0-4.27338,3.47668-7.75,7.75-7.75h18c4.27332,0,7.75,3.47662,7.75,7.75v18Z"/><path d="m28,18.375H10c-.34473,0-.625.27979-.625.625v8c0,.34521.28027.625.625.625h18c.34473,0,.625-.27979.625-.625v-8c0-.34521-.28027-.625-.625-.625Zm-.625,8H10.625v-6.75h16.75v6.75Z"/><path d="m12,17.625c.34473,0,.625-.27979.625-.625v-1.375h12.75v1.375c0,.34521.28027.625.625.625s.625-.27979.625-.625v-2c0-.34521-.28027-.625-.625-.625h-14c-.34473,0-.625.27979-.625.625v2c0,.34521.28027.625.625.625Z"/><path d="m14,13.625c.34473,0,.625-.27979.625-.625v-1.375h8.75v1.375c0,.34521.28027.625.625.625s.625-.27979.625-.625v-2c0-.34521-.28027-.625-.625-.625h-10c-.34473,0-.625.27979-.625.625v2c0,.34521.28027.625.625.625Z"/><path d="m13.55762,24.44189c.12207.12207.28223.18311.44238.18311s.32031-.06104.44238-.18311l2-2c.24316-.24414.24316-.63965,0-.88379-.24414-.24414-.64062-.24414-.88477,0l-1.55762,1.55811-.55762-.55811c-.24414-.24414-.64062-.24414-.88477,0-.24316.24414-.24316.63965,0,.88379l1,1Z"/><path d="m19,22.625h6c.34473,0,.625-.27979.625-.625s-.28027-.625-.625-.625h-6c-.34473,0-.625.27979-.625.625s.28027.625.625.625Z"/><path d="m19,24.625h4c.34473,0,.625-.27979.625-.625s-.28027-.625-.625-.625h-4c-.34473,0-.625.27979-.625.625s.28027.625.625.625Z"/></svg>